#Comment line ignore any data following # character 
#Hierarchical Translation and Rotation (.htr) file 
[Header]	
#Header keywords are followed by a single value 
FileType HTR		#Single word string
DataType HTRS		#Translation followed by rotation and scale data
FileVersion 1		#integer
NumSegments 84		#integer
NumFrames 2		#integer
DataFrameRate 30		#integer, data frame rate in this file
EulerRotationOrder ZYX
CalibrationUnits mm
RotationUnits Degrees
GlobalAxisofGravity Y
BoneLengthAxis Y
ScaleFactor 1.00
[SegmentNames&Hierarchy]
#CHILD	PARENT
MASTER GLOBAL
root MASTER
chest root
L_mid_tent01 root
R_mid_tent01 root
spine01 root
Bip01_Neck chest
L_humerus chest
R_humerus chest
weapon_bone chest
Bip01_Head Bip01_Neck
eye_left_bone Bip01_Head
eye_right_bone Bip01_Head
L_forearm L_humerus
L_front_hand L_forearm
L_weapon_bone L_forearm
L_front_hand01_01 L_front_hand
L_front_hand02_01 L_front_hand
L_front_hand03_01 L_front_hand
L_front_hand01_02 L_front_hand01_01
L_front_hand02_02 L_front_hand02_01
L_front_hand03_02 L_front_hand03_01
R_forearm R_humerus
R_front_hand R_forearm
R_weapon_bone R_forearm
R_front_hand01_01 R_front_hand
R_front_hand02_01 R_front_hand
R_front_hand03_01 R_front_hand
R_front_hand01_02 R_front_hand01_01
R_front_hand02_02 R_front_hand02_01
R_front_hand03_02 R_front_hand03_01
null_rope01_connect L_mid_tent01
Rope1_Seg01 null_rope01_connect
Rope1_Seg02 Rope1_Seg01
Rope1_Seg03 Rope1_Seg02
Rope1_Seg04 Rope1_Seg03
Rope1_Seg05 Rope1_Seg04
Rope1_Seg06 Rope1_Seg05
Rope1_Seg07 Rope1_Seg06
Rope1_Seg09 Rope1_Seg07
L_mid_hand01 Rope1_Seg09
L_mid_hand02 Rope1_Seg09
L_mid_hand03 Rope1_Seg09
null_rope02_connect R_mid_tent01
Rope2_Seg01 null_rope02_connect
Rope2_Seg02 Rope2_Seg01
Rope2_Seg03 Rope2_Seg02
Rope2_Seg04 Rope2_Seg03
Rope2_Seg05 Rope2_Seg04
Rope2_Seg06 Rope2_Seg05
Rope2_Seg07 Rope2_Seg06
Rope2_Seg09 Rope2_Seg07
R_mid_hand01 Rope2_Seg09
R_mid_hand02 Rope2_Seg09
R_mid_hand03 Rope2_Seg09
spine02 spine01
spine03 spine02
pelvis spine03
null_rope03_connect pelvis
null_rope04_connect pelvis
Rope3_Seg01 null_rope03_connect
Rope3_Seg02 Rope3_Seg01
Rope3_Seg03 Rope3_Seg02
Rope3_Seg04 Rope3_Seg03
Rope3_Seg05 Rope3_Seg04
Rope3_Seg06 Rope3_Seg05
Rope3_Seg07 Rope3_Seg06
Rope3_Seg08 Rope3_Seg07
Rope3_Seg09 Rope3_Seg08
R_rear_hand01 Rope3_Seg09
R_rear_hand02 Rope3_Seg09
R_rear_hand03 Rope3_Seg09
Rope4_Seg01 null_rope04_connect
Rope4_Seg02 Rope4_Seg01
Rope4_Seg03 Rope4_Seg02
Rope4_Seg04 Rope4_Seg03
Rope4_Seg05 Rope4_Seg04
Rope4_Seg06 Rope4_Seg05
Rope4_Seg07 Rope4_Seg06
Rope4_Seg08 Rope4_Seg07
Rope4_Seg09 Rope4_Seg08
L_rear_hand01 Rope4_Seg09
L_rear_hand02 Rope4_Seg09
L_rear_hand03 Rope4_Seg09
[BasePosition]
#SegmentName Tx, Ty, Tz, Rx, Ry, Rz, BoneLength
MASTER 0.000000 0.000000 0.000000 -90.000000 0.000000 0.000000 10.000000 
root 0.000000 0.000000 0.000000 0.000000 0.000000 0.000000 10.000000 
chest 0.000000 0.000000 0.000000 0.000000 0.000000 0.000000 10.000000 
L_mid_tent01 0.000000 0.000000 0.000000 0.000000 0.000000 0.000000 10.000000 
R_mid_tent01 0.000000 0.000000 0.000000 0.000000 0.000000 0.000000 10.000000 
spine01 0.000000 0.000000 0.000000 0.000000 0.000000 0.000000 10.000000 
Bip01_Neck 0.000000 0.000000 0.000000 0.000000 0.000000 0.000000 10.000000 
L_humerus 0.000000 0.000000 0.000000 0.000000 0.000000 0.000000 10.000000 
R_humerus 0.000000 0.000000 0.000000 0.000000 0.000000 0.000000 10.000000 
weapon_bone 0.000000 0.000000 0.000000 0.000000 0.000000 0.000000 10.000000 
Bip01_Head 0.000000 0.000000 0.000000 0.000000 0.000000 0.000000 10.000000 
eye_left_bone 0.000000 0.000000 0.000000 0.000000 0.000000 0.000000 10.000000 
eye_right_bone 0.000000 0.000000 0.000000 0.000000 0.000000 0.000000 10.000000 
L_forearm 0.000000 0.000000 0.000000 0.000000 0.000000 0.000000 10.000000 
L_front_hand 0.000000 0.000000 0.000000 0.000000 0.000000 0.000000 10.000000 
L_weapon_bone 0.000000 0.000000 0.000000 0.000000 0.000000 0.000000 10.000000 
L_front_hand01_01 0.000000 0.000000 0.000000 0.000000 0.000000 0.000000 10.000000 
L_front_hand02_01 0.000000 0.000000 0.000000 0.000000 0.000000 0.000000 10.000000 
L_front_hand03_01 0.000000 0.000000 0.000000 0.000000 0.000000 0.000000 10.000000 
L_front_hand01_02 0.000000 0.000000 0.000000 0.000000 0.000000 0.000000 10.000000 
L_front_hand02_02 0.000000 0.000000 0.000000 0.000000 0.000000 0.000000 10.000000 
L_front_hand03_02 0.000000 0.000000 0.000000 0.000000 0.000000 0.000000 10.000000 
R_forearm 0.000000 0.000000 0.000000 0.000000 0.000000 0.000000 10.000000 
R_front_hand 0.000000 0.000000 0.000000 0.000000 0.000000 0.000000 10.000000 
R_weapon_bone 0.000000 0.000000 0.000000 0.000000 0.000000 0.000000 10.000000 
R_front_hand01_01 0.000000 0.000000 0.000000 0.000000 0.000000 0.000000 10.000000 
R_front_hand02_01 0.000000 0.000000 0.000000 0.000000 0.000000 0.000000 10.000000 
R_front_hand03_01 0.000000 0.000000 0.000000 0.000000 0.000000 0.000000 10.000000 
R_front_hand01_02 0.000000 0.000000 0.000000 0.000000 0.000000 0.000000 10.000000 
R_front_hand02_02 0.000000 0.000000 0.000000 0.000000 0.000000 0.000000 10.000000 
R_front_hand03_02 0.000000 0.000000 0.000000 0.000000 0.000000 0.000000 10.000000 
null_rope01_connect 0.000000 0.000000 0.000000 0.000000 0.000000 0.000000 10.000000 
Rope1_Seg01 0.000000 0.000000 0.000000 0.000000 0.000000 0.000000 10.000000 
Rope1_Seg02 0.000000 0.000000 0.000000 0.000000 0.000000 0.000000 10.000000 
Rope1_Seg03 0.000000 0.000000 0.000000 0.000000 0.000000 0.000000 10.000000 
Rope1_Seg04 0.000000 0.000000 0.000000 0.000000 0.000000 0.000000 10.000000 
Rope1_Seg05 0.000000 0.000000 0.000000 0.000000 0.000000 0.000000 10.000000 
Rope1_Seg06 0.000000 0.000000 0.000000 0.000000 0.000000 0.000000 10.000000 
Rope1_Seg07 0.000000 0.000000 0.000000 0.000000 0.000000 0.000000 10.000000 
Rope1_Seg09 0.000000 0.000000 0.000000 0.000000 0.000000 0.000000 10.000000 
L_mid_hand01 0.000000 0.000000 0.000000 0.000000 0.000000 0.000000 10.000000 
L_mid_hand02 0.000000 0.000000 0.000000 0.000000 0.000000 0.000000 10.000000 
L_mid_hand03 0.000000 0.000000 0.000000 0.000000 0.000000 0.000000 10.000000 
null_rope02_connect 0.000000 0.000000 0.000000 0.000000 0.000000 0.000000 10.000000 
Rope2_Seg01 0.000000 0.000000 0.000000 0.000000 0.000000 0.000000 10.000000 
Rope2_Seg02 0.000000 0.000000 0.000000 0.000000 0.000000 0.000000 10.000000 
Rope2_Seg03 0.000000 0.000000 0.000000 0.000000 0.000000 0.000000 10.000000 
Rope2_Seg04 0.000000 0.000000 0.000000 0.000000 0.000000 0.000000 10.000000 
Rope2_Seg05 0.000000 0.000000 0.000000 0.000000 0.000000 0.000000 10.000000 
Rope2_Seg06 0.000000 0.000000 0.000000 0.000000 0.000000 0.000000 10.000000 
Rope2_Seg07 0.000000 0.000000 0.000000 0.000000 0.000000 0.000000 10.000000 
Rope2_Seg09 0.000000 0.000000 0.000000 0.000000 0.000000 0.000000 10.000000 
R_mid_hand01 0.000000 0.000000 0.000000 0.000000 0.000000 0.000000 10.000000 
R_mid_hand02 0.000000 0.000000 0.000000 0.000000 0.000000 0.000000 10.000000 
R_mid_hand03 0.000000 0.000000 0.000000 0.000000 0.000000 0.000000 10.000000 
spine02 0.000000 0.000000 0.000000 0.000000 0.000000 0.000000 10.000000 
spine03 0.000000 0.000000 0.000000 0.000000 0.000000 0.000000 10.000000 
pelvis 0.000000 0.000000 0.000000 0.000000 0.000000 0.000000 10.000000 
null_rope03_connect 0.000000 0.000000 0.000000 0.000000 0.000000 0.000000 10.000000 
null_rope04_connect 0.000000 0.000000 0.000000 0.000000 0.000000 0.000000 10.000000 
Rope3_Seg01 0.000000 0.000000 0.000000 0.000000 0.000000 0.000000 10.000000 
Rope3_Seg02 0.000000 0.000000 0.000000 0.000000 0.000000 0.000000 10.000000 
Rope3_Seg03 0.000000 0.000000 0.000000 0.000000 0.000000 0.000000 10.000000 
Rope3_Seg04 0.000000 0.000000 0.000000 0.000000 0.000000 0.000000 10.000000 
Rope3_Seg05 0.000000 0.000000 0.000000 0.000000 0.000000 0.000000 10.000000 
Rope3_Seg06 0.000000 0.000000 0.000000 0.000000 0.000000 0.000000 10.000000 
Rope3_Seg07 0.000000 0.000000 0.000000 0.000000 0.000000 0.000000 10.000000 
Rope3_Seg08 0.000000 0.000000 0.000000 0.000000 0.000000 0.000000 10.000000 
Rope3_Seg09 0.000000 0.000000 0.000000 0.000000 0.000000 0.000000 10.000000 
R_rear_hand01 0.000000 0.000000 0.000000 0.000000 0.000000 0.000000 10.000000 
R_rear_hand02 0.000000 0.000000 0.000000 0.000000 0.000000 0.000000 10.000000 
R_rear_hand03 0.000000 0.000000 0.000000 0.000000 0.000000 0.000000 10.000000 
Rope4_Seg01 0.000000 0.000000 0.000000 0.000000 0.000000 0.000000 10.000000 
Rope4_Seg02 0.000000 0.000000 0.000000 0.000000 0.000000 0.000000 10.000000 
Rope4_Seg03 0.000000 0.000000 0.000000 0.000000 0.000000 0.000000 10.000000 
Rope4_Seg04 0.000000 0.000000 0.000000 0.000000 0.000000 0.000000 10.000000 
Rope4_Seg05 0.000000 0.000000 0.000000 0.000000 0.000000 0.000000 10.000000 
Rope4_Seg06 0.000000 0.000000 0.000000 0.000000 0.000000 0.000000 10.000000 
Rope4_Seg07 0.000000 0.000000 0.000000 0.000000 0.000000 0.000000 10.000000 
Rope4_Seg08 0.000000 0.000000 0.000000 0.000000 0.000000 0.000000 10.000000 
Rope4_Seg09 0.000000 0.000000 0.000000 0.000000 0.000000 0.000000 10.000000 
L_rear_hand01 0.000000 0.000000 0.000000 0.000000 0.000000 0.000000 10.000000 
L_rear_hand02 0.000000 0.000000 0.000000 0.000000 0.000000 0.000000 10.000000 
L_rear_hand03 0.000000 0.000000 0.000000 0.000000 0.000000 0.000000 10.000000 
#Beginning of Data. Separated by tabs
#Fr	Tx	Ty	Tz	Rx	Ry	Rz	SF
[MASTER]
9 0.000003 -0.000089 -651.427246 0.001660 0.001660 0.001660 651.427246
10 0.000003 -0.000087 -801.105774 0.001660 0.001660 0.001660 801.105774
[root]
9 -16.502298 -28.456093 1471.377686 -82.983437 -13.341934 -87.416191 1471.745483
10 -16.502298 -27.256119 1470.355469 -86.024689 -13.611808 -88.468857 1470.700684
[chest]
9 -84.512650 -34.090519 0.000000 -79.866440 5.030731 154.436310 91.129311
10 -84.512650 -34.090519 0.000000 -70.739357 3.954745 156.307693 91.129311
[L_mid_tent01]
9 27.299286 22.178455 -249.918533 -139.187927 70.994331 -51.141670 252.381470
10 27.299286 22.178469 -249.918533 -120.371254 76.799065 -33.449486 252.381485
[R_mid_tent01]
9 23.228794 24.509907 226.238495 -177.722504 -77.801620 66.967751 228.744751
10 23.228794 24.509907 226.238495 175.181320 -75.412254 74.129326 228.744751
[spine01]
9 -0.361383 -0.195265 0.000000 0.002062 0.001122 32.879829 0.410763
10 -0.361383 -0.195265 0.000000 0.002062 0.001122 32.879829 0.410763
[Bip01_Neck]
9 165.484543 71.581718 0.000119 176.643677 -1.657967 43.431911 180.302734
10 165.484543 71.581718 0.000119 176.643677 -1.657967 43.431911 180.302734
[L_humerus]
9 -13.983130 -135.272980 -120.471481 162.983139 68.405434 -107.141617 181.680161
10 -13.983130 -135.272980 -120.471481 161.485229 68.835632 -108.393616 181.680161
[R_humerus]
9 -13.983309 -135.273102 125.287651 -174.785614 -70.008904 -88.986046 184.909012
10 -13.983309 -135.273102 125.287651 -174.077469 -69.450661 -90.075539 184.909012
[weapon_bone]
9 235.964890 -300.705902 0.000000 0.000000 -89.951546 -128.212341 382.234833
10 235.964890 -300.705902 0.000000 0.000000 -89.951546 -128.212341 382.234833
[Bip01_Head]
9 213.332748 186.006546 8.020168 29.154943 5.767374 -43.839493 283.149475
10 213.331177 186.015350 7.906530 29.974691 5.842680 -43.839027 283.150879
[eye_left_bone]
9 -24.626970 125.451866 -64.772606 0.000000 -90.000000 -99.840431 143.318359
10 -24.626970 125.451866 -64.772606 0.000000 -90.000000 -99.840431 143.318359
[eye_right_bone]
9 -24.626970 125.451866 64.327362 0.000000 -89.965736 80.156380 143.117676
10 -24.626970 125.451866 64.327362 0.000000 -89.965736 80.156380 143.117676
[L_forearm]
9 322.776093 0.000000 -0.000119 0.000224 -0.002337 -100.953018 322.776093
10 322.776093 0.000000 -0.000119 0.000215 -0.002337 -100.533058 322.776093
[L_front_hand]
9 241.149185 -0.042021 -3.300071 -178.481522 -1.685571 -33.432068 241.171753
10 241.149185 -0.042021 -3.300071 -178.491943 -1.695104 -33.091019 241.171753
[L_weapon_bone]
9 156.183838 0.000000 0.000000 0.000014 0.000007 0.000001 156.183838
10 156.183838 0.000000 0.000000 0.000014 0.000007 0.000001 156.183838
[L_front_hand01_01]
9 86.095154 20.947098 -0.655860 -0.360010 -0.482183 74.749405 88.609184
10 86.095154 20.947098 -0.655860 -0.365371 -0.478091 75.092110 88.609184
[L_front_hand02_01]
9 86.935165 -11.437475 24.513514 153.427811 -59.611073 -60.242889 91.046425
10 86.935165 -11.437475 24.513514 153.946472 -59.758556 -60.843468 91.046425
[L_front_hand03_01]
9 86.637497 -14.123976 -20.424902 -153.017075 57.836384 -61.645981 90.126129
10 86.637497 -14.123976 -20.424902 -153.504349 57.989815 -62.217369 90.126129
[L_front_hand01_02]
9 71.020905 -0.000179 0.000030 0.000327 -0.002324 -105.996155 71.020905
10 71.020905 -0.000179 0.000030 0.000328 -0.002324 -106.048759 71.020905
[L_front_hand02_02]
9 71.020927 -0.000119 0.000060 0.000327 -0.002324 -105.996155 71.020927
10 71.020927 -0.000119 0.000060 0.000328 -0.002324 -106.048759 71.020927
[L_front_hand03_02]
9 71.020905 -0.000060 0.000060 0.000327 -0.002324 -105.996155 71.020905
10 71.020905 -0.000060 0.000060 0.000328 -0.002324 -106.048759 71.020905
[R_forearm]
9 322.776428 -0.000060 0.000030 0.211629 0.030203 -98.875549 322.776428
10 322.776428 -0.000060 0.000030 0.211835 0.028099 -98.491081 322.776428
[R_front_hand]
9 238.847015 -0.006795 2.210259 -1.306168 -10.884861 -33.422764 238.857239
10 238.847015 -0.006795 2.210259 -1.382627 -10.874153 -33.019253 238.857239
[R_weapon_bone]
9 155.664093 0.002503 -0.000030 0.003487 0.001180 -90.988930 155.664078
10 155.664093 0.002503 -0.000030 0.003487 0.001180 -90.988930 155.664078
[R_front_hand01_01]
9 87.624611 14.231146 22.918642 -154.633499 -59.950619 61.746044 91.683487
10 87.624611 14.231146 22.918642 -154.633499 -59.950615 61.746044 91.683487
[R_front_hand02_01]
9 89.356956 14.367283 -19.491137 154.602661 58.302856 63.744389 92.579636
10 89.356956 14.367283 -19.491137 154.602661 58.302849 63.744389 92.579636
[R_front_hand03_01]
9 87.286232 -22.307278 -0.143439 0.162155 -0.423168 -75.767921 90.091743
10 87.286232 -22.307278 -0.143439 0.162155 -0.423168 -75.767921 90.091743
[R_front_hand01_02]
9 71.020905 0.000060 0.000119 0.002323 -0.000334 106.381714 71.020905
10 71.020905 0.000060 0.000119 0.002323 -0.000334 106.381714 71.020905
[R_front_hand02_02]
9 71.020844 -0.000030 -0.000119 0.002323 -0.000334 106.381714 71.020836
10 71.020844 -0.000030 -0.000119 0.002323 -0.000334 106.381714 71.020836
[R_front_hand03_02]
9 71.020905 0.000000 0.000030 0.002323 -0.000334 106.381714 71.020905
10 71.020905 0.000000 0.000030 0.002323 -0.000334 106.381714 71.020905
[null_rope01_connect]
9 328.732483 0.000000 -0.000238 -162.895370 6.513898 -165.257767 328.732483
10 328.732483 0.000000 -0.000238 -162.606918 2.212919 -167.354385 328.732483
[Rope1_Seg01]
9 0.000014 -0.000054 0.000055 -7.728298 2.789188 -166.387238 0.000078
10 0.000016 -0.000053 0.000062 -10.015431 -0.146364 -167.223206 0.000084
[Rope1_Seg02]
9 139.999863 -0.000179 0.000000 -12.360029 -14.058315 -12.541919 139.999863
10 139.999863 -0.000179 0.000000 -12.624429 -13.679107 -13.241378 139.999863
[Rope1_Seg03]
9 139.999924 0.000060 -0.000060 -11.852309 -14.494760 -23.559206 139.999924
10 139.999924 0.000060 -0.000060 -11.579648 -13.777911 -24.258198 139.999924
[Rope1_Seg04]
9 139.999924 -0.000060 -0.000119 -4.941435 -6.554419 -23.487217 139.999924
10 139.999924 -0.000060 -0.000119 -4.533184 -6.017290 -24.566593 139.999924
[Rope1_Seg05]
9 139.999832 0.000119 -0.000060 -1.199897 -6.242791 -5.056319 139.999832
10 139.999832 0.000119 -0.000060 -0.731848 -4.655230 -4.375060 139.999832
[Rope1_Seg06]
9 139.999954 0.000119 -0.000060 -0.979585 -6.199997 1.015640 139.999954
10 139.999954 0.000119 -0.000060 -0.395644 -4.600236 2.987710 139.999954
[Rope1_Seg07]
9 139.999985 0.000060 0.000000 -0.938021 -3.212173 -1.604858 139.999985
10 139.999985 0.000060 0.000000 -0.527025 -2.478605 -0.486571 139.999985
[Rope1_Seg09]
9 121.602913 0.000119 -0.000089 -89.793175 -1.359789 0.847147 121.602913
10 121.602913 0.000119 -0.000089 -89.793175 -1.359789 0.847147 121.602913
[L_mid_hand01]
9 103.859421 1.038730 8.195221 130.544373 -67.584534 -38.866943 104.187431
10 103.859421 1.038730 8.195221 130.544373 -67.584534 -38.866943 104.187431
[L_mid_hand02]
9 105.572853 -4.139662 -10.864139 -168.923172 43.409309 -73.498886 106.211075
10 105.572853 -4.139662 -10.864139 -168.923172 43.409309 -73.498886 106.211075
[L_mid_hand03]
9 104.641464 17.579376 -3.913581 -6.012626 17.808172 74.893661 106.179977
10 104.641464 17.579376 -3.913581 -6.012627 17.808174 74.893669 106.179977
[null_rope02_connect]
9 328.732849 0.000179 -0.000119 -146.164200 4.179354 -0.826701 328.732849
10 328.732849 0.000179 -0.000119 -145.622543 9.954132 1.098304 328.732849
[Rope2_Seg01]
9 -0.000042 0.000101 0.000000 69.371414 46.156807 4.446908 0.000109
10 -0.000037 0.000101 0.000000 66.217979 48.375717 1.098614 0.000108
[Rope2_Seg02]
9 139.999741 -0.000060 -0.000119 0.840090 3.996390 2.465971 139.999756
10 139.999741 -0.000060 -0.000119 0.570224 4.294921 1.171275 139.999756
[Rope2_Seg03]
9 140.000107 0.000030 0.000000 1.406311 8.330983 5.377526 140.000107
10 140.000107 0.000030 0.000000 0.720184 8.607383 2.362303 140.000107
[Rope2_Seg04]
9 139.999802 0.000000 -0.000060 4.293409 32.329906 27.681471 139.999802
10 139.999802 0.000000 -0.000060 -0.835996 32.027302 12.849397 139.999802
[Rope2_Seg05]
9 139.999985 -0.000060 0.000119 -5.730248 32.566772 -14.679431 139.999985
10 139.999985 -0.000060 0.000119 -10.326489 32.389797 -6.230859 139.999985
[Rope2_Seg06]
9 139.999893 -0.000030 -0.000119 -0.647109 5.072580 -1.903364 139.999893
10 139.999893 -0.000030 -0.000119 -2.563138 4.733878 -0.371657 139.999893
[Rope2_Seg07]
9 139.999893 0.000060 -0.000060 -0.695455 2.445948 -0.676070 139.999893
10 139.999893 0.000060 -0.000060 -1.851361 2.338151 0.102409 139.999893
[Rope2_Seg09]
9 121.338966 0.000089 -0.000060 33.793236 -1.359788 -0.847141 121.338966
10 121.338966 0.000089 -0.000060 33.793236 -1.359788 -0.847141 121.338966
[R_mid_hand01]
9 104.680779 11.144459 -10.335981 -16.212063 45.237240 70.462845 105.778534
10 104.680779 11.144459 -10.335981 -16.212063 45.237247 70.462852 105.778534
[R_mid_hand02]
9 104.070427 2.443552 8.231699 49.067368 -67.749771 39.286453 104.424065
10 104.070427 2.443552 8.231699 49.067368 -67.749771 39.286453 104.424065
[R_mid_hand03]
9 106.028137 -11.221827 -5.996406 -177.101105 15.551026 -76.585571 106.788818
10 106.028137 -11.221827 -5.996406 -177.101105 15.551026 -76.585571 106.788818
[spine02]
9 129.756927 0.001550 0.000119 -1.199629 -4.191247 9.244584 129.756927
10 129.756927 0.001550 0.000119 -1.202649 -4.172548 9.277545 129.756927
[spine03]
9 78.613953 0.083972 -4.898959 0.920393 4.757986 2.687211 78.766495
10 78.613953 0.083911 -4.898960 0.918438 4.726047 2.658371 78.766495
[pelvis]
9 169.435242 0.051022 0.000000 0.026344 0.043060 -13.832012 169.435257
10 169.435242 0.051022 0.000000 0.027918 0.029979 -13.885153 169.435257
[null_rope03_connect]
9 -1.257226 -2.466202 137.391083 32.220272 -82.771294 40.103962 137.418976
10 -1.257226 -2.466202 137.391083 34.266304 -86.174492 38.458519 137.418976
[null_rope04_connect]
9 -1.259640 -2.480268 -137.844437 32.220272 -82.771294 40.103962 137.872513
10 -1.259640 -2.480268 -137.844437 34.266304 -86.174492 38.458519 137.872513
[Rope3_Seg01]
9 -0.000005 0.000007 -0.000069 13.963416 -6.323704 -57.311928 0.000070
10 -0.000006 0.000008 -0.000059 13.845091 -6.825685 -57.458996 0.000060
[Rope3_Seg02]
9 139.999924 -0.000119 0.000060 -2.010522 -5.379436 3.082462 139.999924
10 139.999924 -0.000119 0.000060 -1.978561 -5.244291 3.222087 139.999924
[Rope3_Seg03]
9 139.999924 -0.000119 0.000119 -2.767891 -7.608716 4.053769 139.999924
10 139.999924 -0.000119 0.000119 -2.666861 -7.184208 4.115467 139.999924
[Rope3_Seg04]
9 139.999924 0.000119 0.000000 -4.375190 -11.415889 6.764259 139.999924
10 139.999924 0.000119 0.000000 -4.182179 -10.091801 6.922769 139.999924
[Rope3_Seg05]
9 139.999924 -0.000238 0.000060 -6.067225 -16.536739 9.771066 139.999924
10 139.999924 -0.000238 0.000060 -5.606268 -13.723935 9.117934 139.999924
[Rope3_Seg06]
9 139.999893 -0.000119 -0.000060 -0.167853 -10.062711 -3.941304 139.999893
10 139.999893 -0.000119 -0.000060 -0.245108 -10.189107 -4.754500 139.999893
[Rope3_Seg07]
9 139.999771 0.000060 -0.000119 0.769363 -3.557851 -9.508829 139.999771
10 139.999771 0.000060 -0.000119 0.988855 -5.514543 -9.946618 139.999771
[Rope3_Seg08]
9 139.999985 -0.000060 0.000000 0.860901 -4.069590 -3.558085 139.999985
10 139.999985 -0.000060 0.000000 0.951496 -4.679634 -3.730546 139.999985
[Rope3_Seg09]
9 90.185997 -0.000179 -0.000060 89.793228 -1.359877 -0.847183 90.185997
10 90.185997 -0.000179 -0.000060 89.793228 -1.359877 -0.847183 90.185997
[R_rear_hand01]
9 103.366196 -6.073594 -10.757982 -177.714203 24.565960 -73.910950 104.101845
10 103.366196 -6.073594 -10.757982 -177.714203 24.565960 -73.910950 104.101845
[R_rear_hand02]
9 100.509819 12.039542 -7.992327 -12.874829 36.868488 72.167213 101.543350
10 100.509819 12.039542 -7.992327 -12.874829 36.868488 72.167213 101.543350
[R_rear_hand03]
9 101.539970 5.215704 5.435467 71.484581 -71.816628 21.513813 101.819031
10 101.539970 5.215704 5.435467 71.484581 -71.816628 21.513813 101.819031
[Rope4_Seg01]
9 0.000000 0.000000 0.000000 -94.452278 -20.052282 -117.934784 0.000000
10 0.000000 0.000000 0.000000 -94.068810 -21.367537 -118.333122 0.000000
[Rope4_Seg02]
9 139.999985 0.000060 0.000119 1.305918 3.484492 -12.209166 139.999985
10 139.999985 0.000060 0.000119 1.339972 4.477580 -12.459145 139.999985
[Rope4_Seg03]
9 139.999924 0.000000 -0.000238 0.849657 3.802161 -12.958156 139.999924
10 139.999924 0.000000 -0.000238 1.058762 5.124410 -12.840412 139.999924
[Rope4_Seg04]
9 139.999985 0.000000 0.000119 0.438532 4.415186 -10.036648 139.999985
10 139.999985 0.000000 0.000119 0.840019 5.225630 -10.028365 139.999985
[Rope4_Seg05]
9 139.999802 -0.000060 -0.000119 0.288454 -0.238506 -13.323019 139.999802
10 139.999802 -0.000060 -0.000119 0.845455 -1.173280 -15.965108 139.999802
[Rope4_Seg06]
9 139.999924 0.000000 0.000060 -1.294611 -3.853285 -18.223846 139.999924
10 139.999924 0.000000 0.000060 -1.186840 -4.535374 -18.981659 139.999924
[Rope4_Seg07]
9 139.999802 0.000000 0.000000 -3.051073 -1.603033 -13.076487 139.999802
10 139.999802 0.000000 0.000000 -2.647008 -1.451348 -11.422274 139.999802
[Rope4_Seg08]
9 139.999924 0.000000 0.000119 -4.147295 -0.381567 -7.695853 139.999924
10 139.999924 0.000000 0.000119 -3.661869 -0.482069 -6.597466 139.999924
[Rope4_Seg09]
9 90.185791 0.000060 0.000060 -135.617828 2.228885 0.850567 90.185791
10 90.185791 0.000060 0.000060 -135.617828 2.228885 0.850567 90.185791
[L_rear_hand01]
9 101.696655 -8.392275 -7.654577 -12.874829 -36.868488 107.832764 102.329041
10 101.696655 -8.392275 -7.654577 -12.874829 -36.868488 107.832764 102.329041
[L_rear_hand02]
9 102.726799 -1.568258 5.773216 71.484581 71.816628 158.486160 102.900848
10 102.726799 -1.568258 5.773216 71.484581 71.816628 158.486160 102.900848
[L_rear_hand03]
9 104.552910 9.721220 -10.420293 -177.714203 -24.565960 -106.089035 105.519653
10 104.552910 9.721220 -10.420293 -177.714203 -24.565960 -106.089035 105.519653
